<svg version="1.2" xmlns="http://www.w3.org/2000/svg" viewBox="0 0 605 605" width="168" height="168">
	<title>template (1)</title>
	<style>
		tspan { white-space:pre } 
		.s0 { fill: #3e3b00 } 
		.t1 { font-size: 53px;fill: #ffffff;font-weight: 400;font-family: "SourceHanSansSC-Regular", "Source Han Sans SC" } 
	</style>
	<g id="leaf">
		<path id="Layer" class="s0" d="m424.9 594.3l-7.7-2.5-0.8-13.7-35.1-65.1-18-41.9-37.7-52.3 9.4 22.3c-1.7 27.4-17.1 43.7-30.8 61.6l-12.8-14.5-61.6 27.4c-1.8-24-30-21.4-58.3-19.7l41.1-46.2c10.3-8.6 6-15.4-6.8-21.4l-57.4-11.2c15.4-9.4 11.2-22.2 0.9-35.1 5.1-11.9-15.4-23.9-28.3-35.9 13.7 0 31.7 4.3 36.8-3.4 13.7 1.7 24.9 1.7 24.9-14.6 15.4 11.1 32.5 13.7 49.6 14.6l21.4 6.8c-4.3-18.8-21.4-20.5-30.8-58.2-4.3-1.7-9.4-4.3-14.5-14.6 23.9 6.9 16.2-13.6 14.5-27.3 8.6-9.5 18-17.2 9.4-40.3 13.7 16.3 23.1 18 30 15.4 23.1 23.1 32.5 16.3 37.6 0 6 24 12 30 18 37.7 4.3 12.8 11.1 28.2 11.1 35.1 13.7 19.7 18 8.6 21.4-0.9l19.7-38.5c24 0 42.8-24.8 63.4-45.4-5.2 22.3-6.9 40.3 4.3 42-6.9 23.1 0.8 38.5 18.8 47.1-11.1 6.8-19.7 26.5-29.1 41.1-15.4 21.4 6.8 16.2 13.7 21.4 26.5 2.5 31.7 13.7 46.2 20.5-15.4 3.4-31.7 6-39.4 24q-16.7 17.9-2.5 25.7c-6-1.8-6 2.5-19.7-6.9-11.2 3.4-25.7 10.3-30 6.9-8.5-3.5-12 2.5-15.4 11.9 0 11.2 3.4 9.5 5.1 13.7-23.9 5.2-38.5-22.2-55.6-42.8l37.7 49.7 18.8 43.6 36 68.5z"/>
	</g>
	<text id="我的地盘我做主" style="transform: matrix(1,0,0,1,324,130.26)" >
		<tspan x="-185.5" y="0" class="t1">我的</tspan><tspan  y="0" class="t1">地盘</tspan><tspan  y="0" class="t1">我</tspan><tspan  y="0" class="t1">做主</tspan><tspan  y="0" class="t1">
</tspan>
	</text>
</svg>